<?xml version="1.0" encoding="utf-8"?>
<!-- Generator: Adobe Illustrator 17.0.0, SVG Export Plug-In . SVG Version: 6.00 Build 0)  -->
<!DOCTYPE svg PUBLIC "-//W3C//DTD SVG 1.1//EN" "http://www.w3.org/Graphics/SVG/1.1/DTD/svg11.dtd">
<svg version="1.1" id="Layer_1" xmlns="http://www.w3.org/2000/svg" xmlns:xlink="http://www.w3.org/1999/xlink" x="0px" y="0px"
	 width="161px" height="185px" viewBox="0 0 161 185" enable-background="new 0 0 161 185" xml:space="preserve">
<rect x="0.369" y="1.186" fill="#FFFFFF" width="161.283" height="183.814"/>
<g>
	<path fill="#3E3D72" d="M45.333,46.067C-0.539,92.356,4.847,157.952,4.847,157.952h14.612h137.185V6.156
		C156.645,6.156,90.242,0.77,45.333,46.067z M91.729,114.157h-1.148c-1.06,0-1.896,0.174-2.53,0.549
		c-0.436,0.248-0.795,0.654-1.042,1.224c-0.201,0.428-0.301,1.529-0.301,3.305v23.513c0,1.826,0.101,2.965,0.301,3.425
		c0.177,0.455,0.573,0.853,1.168,1.194c0.604,0.34,1.397,0.512,2.404,0.512h1.148v0.974h-18.62v-0.974h1.153
		c1.046,0,1.892-0.184,2.521-0.552c0.441-0.24,0.793-0.668,1.06-1.26c0.191-0.43,0.293-1.529,0.293-3.319v-26.444l-13.686,32.55
		h-0.631l-13.889-32.315v25.131c0,1.75,0.042,2.835,0.128,3.229c0.225,0.887,0.731,1.602,1.485,2.153
		c0.763,0.557,1.96,0.827,3.589,0.827v0.974H42.933v-0.974h0.366c0.788,0.031,1.523-0.108,2.207-0.381
		c0.685-0.275,1.206-0.625,1.556-1.087c0.347-0.465,0.615-1.102,0.806-1.923c0.04-0.189,0.061-1.09,0.061-2.69v-22.563
		c0-1.817-0.106-2.941-0.288-3.391c-0.188-0.448-0.59-0.847-1.197-1.179c-0.585-0.345-1.379-0.509-2.383-0.509h-1.127v-0.981h14.572
		l10.028,23.521l9.677-23.521H91.73v0.981H91.729z M115.692,146.463c-2.324,2.16-5.283,3.232-8.864,3.232
		c-1.122,0-2.178-0.113-3.177-0.336c-1.006-0.227-2.251-0.659-3.768-1.288c-0.848-0.361-1.533-0.528-2.065-0.528
		c-0.461,0-0.95,0.167-1.46,0.528c-0.512,0.342-0.924,0.879-1.235,1.603h-0.97v-13.475h0.969c0.771,3.79,2.256,6.674,4.449,8.672
		c2.209,1.996,4.592,2.988,7.13,2.988c1.962,0,3.532-0.542,4.697-1.61c1.169-1.06,1.752-2.305,1.752-3.739
		c0-0.839-0.23-1.661-0.679-2.44c-0.441-0.785-1.127-1.542-2.044-2.251c-0.9-0.712-2.517-1.632-4.835-2.782
		c-3.244-1.589-5.585-2.957-6.992-4.064c-1.426-1.127-2.518-2.39-3.279-3.768c-0.768-1.386-1.157-2.916-1.157-4.585
		c0-2.846,1.056-5.255,3.141-7.261c2.087-1.996,4.717-3.002,7.899-3.002c1.148,0,2.278,0.139,3.36,0.431
		c0.822,0.197,1.828,0.602,3.021,1.167c1.179,0.562,2.011,0.857,2.482,0.857c0.453,0,0.807-0.146,1.082-0.423
		c0.255-0.285,0.504-0.959,0.74-2.03h0.776l0.29,11.898h-1.066c-0.523-2.982-1.77-5.389-3.763-7.198
		c-1.994-1.813-4.137-2.728-6.445-2.728c-1.801,0-3.211,0.482-4.262,1.431c-1.044,0.966-1.569,2.059-1.569,3.298
		c0,0.805,0.191,1.497,0.554,2.115c0.523,0.817,1.325,1.647,2.454,2.452c0.821,0.577,2.718,1.598,5.705,3.071
		c4.188,2.054,6.99,3.993,8.444,5.82c1.442,1.82,2.155,3.906,2.155,6.257C119.167,141.76,118.01,144.327,115.692,146.463z
		 M144.309,146.463c-2.324,2.16-5.278,3.232-8.859,3.232c-1.112,0-2.183-0.113-3.171-0.336c-1.01-0.227-2.266-0.659-3.77-1.288
		c-0.834-0.361-1.527-0.528-2.076-0.528c-0.46,0-0.945,0.167-1.443,0.528c-0.518,0.342-0.933,0.879-1.238,1.603h-0.978v-13.475
		h0.978c0.757,3.79,2.249,6.674,4.461,8.672c2.198,1.996,4.563,2.988,7.109,2.988c1.969,0,3.53-0.542,4.699-1.61
		c1.165-1.06,1.742-2.305,1.742-3.739c0-0.839-0.212-1.661-0.663-2.44c-0.457-0.785-1.132-1.542-2.048-2.251
		c-0.908-0.712-2.518-1.632-4.837-2.782c-3.243-1.589-5.572-2.957-6.997-4.064c-1.424-1.127-2.518-2.39-3.279-3.768
		c-0.757-1.386-1.15-2.916-1.15-4.585c0-2.846,1.055-5.255,3.139-7.261c2.082-1.996,4.704-3.002,7.886-3.002
		c1.168,0,2.279,0.139,3.375,0.431c0.828,0.197,1.822,0.602,3.004,1.167c1.197,0.562,2.029,0.857,2.498,0.857
		c0.46,0,0.816-0.146,1.066-0.423c0.27-0.285,0.518-0.959,0.742-2.03h0.79l0.293,11.898h-1.082
		c-0.504-2.982-1.756-5.389-3.744-7.198c-1.999-1.813-4.149-2.728-6.461-2.728c-1.785,0-3.218,0.482-4.251,1.431
		c-1.046,0.966-1.549,2.059-1.549,3.298c0,0.805,0.172,1.497,0.531,2.115c0.514,0.817,1.328,1.647,2.456,2.452
		c0.823,0.577,2.73,1.598,5.709,3.071c4.172,2.054,6.983,3.993,8.447,5.82c1.439,1.82,2.162,3.906,2.162,6.257
		C147.8,141.76,146.628,144.327,144.309,146.463z"/>
	<path fill="#870337" d="M102.588,8.699c3.491-0.99,7.089-1.782,10.7-2.543H4.847v108.998c0.788-3.687,1.615-7.353,2.628-10.921
		c0.724-2.536,1.498-5.044,2.345-7.499c0.866-2.576,1.812-5.154,2.801-7.672c1.049-2.623,2.183-5.238,3.37-7.779
		c1.221-2.649,2.551-5.277,3.923-7.833c1.431-2.635,2.965-5.266,4.565-7.78c1.647-2.627,3.416-5.226,5.222-7.702
		c1.889-2.578,3.892-5.123,5.96-7.535c2.136-2.513,4.384-4.976,6.696-7.305c2.265-2.292,4.672-4.516,7.112-6.625
		c2.369-2.043,4.847-4.014,7.368-5.864c2.432-1.795,4.978-3.541,7.559-5.169c2.473-1.567,5.055-3.08,7.681-4.5
		c2.508-1.355,5.098-2.668,7.739-3.878c2.487-1.172,5.078-2.28,7.697-3.307c2.477-0.995,5.054-1.921,7.61-2.791
		C97.578,10.188,100.076,9.403,102.588,8.699z"/>
</g>
<g>
	<path fill="#273583" d="M45.804,171.73v2.942c0,0.486,0.026,0.79,0.08,0.91c0.054,0.121,0.158,0.228,0.315,0.319
		c0.156,0.09,0.367,0.136,0.634,0.136h0.315v0.259h-4.966v-0.259h0.315c0.275,0,0.497-0.049,0.665-0.147
		c0.121-0.066,0.214-0.178,0.28-0.336c0.052-0.113,0.077-0.406,0.077-0.883v-6.248c0-0.486-0.026-0.79-0.077-0.91
		c-0.051-0.121-0.156-0.228-0.311-0.319c-0.156-0.09-0.367-0.136-0.634-0.136h-0.315v-0.259h4.966v0.259h-0.315
		c-0.275,0-0.497,0.049-0.665,0.147c-0.122,0.066-0.217,0.178-0.286,0.336c-0.052,0.113-0.077,0.406-0.077,0.883v2.689h3.355v-2.689
		c0-0.486-0.026-0.79-0.077-0.91c-0.051-0.121-0.156-0.228-0.315-0.319c-0.158-0.09-0.371-0.136-0.638-0.136h-0.308v-0.259h4.958
		v0.259h-0.308c-0.28,0-0.502,0.049-0.665,0.147c-0.122,0.066-0.218,0.178-0.288,0.336c-0.051,0.113-0.077,0.406-0.077,0.883v6.248
		c0,0.486,0.026,0.79,0.077,0.91c0.052,0.121,0.156,0.228,0.315,0.319c0.158,0.09,0.371,0.136,0.638,0.136h0.308v0.259h-4.958
		v-0.259h0.309c0.28,0,0.502-0.049,0.665-0.147c0.122-0.066,0.217-0.178,0.286-0.336c0.052-0.113,0.077-0.406,0.077-0.883v-2.942
		H45.804z"/>
	<path fill="#273583" d="M59.799,166.667c1.513-0.056,2.743,0.385,3.688,1.323c0.945,0.939,1.419,2.112,1.419,3.523
		c0,1.204-0.352,2.264-1.057,3.18c-0.934,1.214-2.253,1.822-3.958,1.822c-1.709,0-3.03-0.579-3.964-1.739
		c-0.737-0.914-1.107-2-1.107-3.257c0-1.41,0.48-2.584,1.44-3.526C57.218,167.052,58.399,166.611,59.799,166.667z M59.884,167.114
		c-0.869,0-1.529,0.443-1.983,1.33c-0.369,0.729-0.553,1.775-0.553,3.139c0,1.622,0.285,2.818,0.854,3.594
		c0.397,0.542,0.953,0.812,1.668,0.812c0.481,0,0.882-0.117,1.204-0.35c0.411-0.299,0.73-0.777,0.96-1.432
		c0.229-0.655,0.343-1.512,0.343-2.568c0-1.255-0.117-2.196-0.35-2.82c-0.234-0.623-0.531-1.064-0.893-1.32
		C60.772,167.243,60.356,167.114,59.884,167.114z"/>
	<path fill="#273583" d="M75.694,172.963l-0.357,3.334h-8.433v-0.259h0.315c0.275,0,0.497-0.049,0.665-0.147
		c0.122-0.066,0.214-0.178,0.28-0.336c0.051-0.113,0.077-0.406,0.077-0.883v-6.248c0-0.486-0.026-0.79-0.077-0.91
		c-0.052-0.121-0.156-0.228-0.311-0.319c-0.156-0.09-0.367-0.136-0.634-0.136h-0.315v-0.259h5.064v0.259h-0.413
		c-0.275,0-0.497,0.049-0.665,0.147c-0.122,0.066-0.217,0.178-0.286,0.336c-0.052,0.113-0.077,0.406-0.077,0.883v6.052
		c0,0.486,0.027,0.795,0.085,0.928c0.056,0.132,0.166,0.233,0.329,0.296c0.117,0.042,0.399,0.064,0.847,0.064h0.792
		c0.504,0,0.924-0.088,1.26-0.267c0.336-0.177,0.626-0.457,0.872-0.841c0.245-0.382,0.477-0.948,0.697-1.694H75.694z"/>
	<path fill="#273583" d="M77.613,176.297v-0.259h0.315c0.275,0,0.487-0.044,0.634-0.13s0.255-0.204,0.325-0.352
		c0.042-0.098,0.064-0.392,0.064-0.883v-6.248c0-0.486-0.026-0.79-0.077-0.91c-0.051-0.121-0.156-0.228-0.311-0.319
		c-0.157-0.09-0.367-0.136-0.634-0.136h-0.315V166.8h4.252c1.135,0,2.049,0.154,2.739,0.462c0.846,0.379,1.486,0.95,1.923,1.716
		c0.437,0.766,0.654,1.633,0.654,2.599c0,0.668-0.107,1.282-0.323,1.845c-0.214,0.563-0.493,1.027-0.833,1.394
		c-0.34,0.366-0.735,0.66-1.181,0.883c-0.445,0.222-0.99,0.392-1.634,0.514c-0.285,0.056-0.734,0.083-1.345,0.083L77.613,176.297
		L77.613,176.297z M81.235,167.338v7.411c0,0.392,0.019,0.634,0.056,0.721c0.037,0.088,0.101,0.157,0.189,0.203
		c0.126,0.071,0.309,0.106,0.546,0.106c0.78,0,1.375-0.267,1.786-0.8c0.56-0.719,0.841-1.835,0.841-3.348
		c0-1.219-0.191-2.193-0.574-2.922c-0.304-0.569-0.694-0.958-1.17-1.163C82.571,167.403,82.014,167.334,81.235,167.338z"/>
	<path fill="#273583" d="M94.256,176.038v0.259H89.29v-0.259h0.315c0.276,0,0.497-0.049,0.665-0.147
		c0.122-0.066,0.215-0.178,0.281-0.336c0.051-0.113,0.077-0.406,0.077-0.883v-6.248c0-0.486-0.026-0.79-0.077-0.91
		c-0.052-0.121-0.156-0.228-0.313-0.319c-0.156-0.09-0.367-0.136-0.634-0.136H89.29v-0.259h4.966v0.259h-0.315
		c-0.276,0-0.497,0.049-0.665,0.147c-0.122,0.066-0.218,0.178-0.286,0.336c-0.052,0.113-0.077,0.406-0.077,0.883v6.248
		c0,0.486,0.026,0.79,0.081,0.91c0.054,0.121,0.158,0.228,0.315,0.319c0.156,0.09,0.367,0.136,0.634,0.136H94.256z"/>
	<path fill="#273583" d="M99.376,166.799l4.687,5.89v-4.083c0-0.57-0.082-0.955-0.245-1.156c-0.224-0.272-0.599-0.402-1.127-0.392
		v-0.259h3.139v0.259c-0.401,0.051-0.671,0.118-0.808,0.199c-0.138,0.081-0.245,0.215-0.323,0.399
		c-0.077,0.184-0.116,0.501-0.116,0.95v7.909h-0.238l-6.423-7.909v6.038c0,0.546,0.126,0.914,0.375,1.107
		c0.25,0.191,0.537,0.286,0.858,0.286h0.224v0.259H96.01v-0.259c0.523-0.005,0.887-0.112,1.092-0.323
		c0.206-0.21,0.309-0.567,0.309-1.071v-6.703l-0.203-0.253c-0.201-0.252-0.379-0.417-0.533-0.496
		c-0.154-0.08-0.376-0.125-0.665-0.133V166.8h3.366V166.799z"/>
	<path fill="#273583" d="M117.28,166.581v3.348h-0.259c-0.313-0.914-0.782-1.61-1.407-2.087c-0.626-0.477-1.31-0.714-2.053-0.714
		c-0.709,0-1.3,0.199-1.772,0.598c-0.472,0.399-0.805,0.957-1.001,1.671c-0.196,0.714-0.294,1.447-0.294,2.199
		c0,0.909,0.107,1.709,0.323,2.395c0.214,0.688,0.56,1.191,1.04,1.513c0.48,0.323,1.047,0.484,1.705,0.484
		c0.229,0,0.463-0.026,0.704-0.075c0.24-0.049,0.487-0.121,0.74-0.214v-1.974c0-0.375-0.026-0.615-0.077-0.726
		c-0.051-0.11-0.157-0.208-0.319-0.296c-0.161-0.088-0.356-0.133-0.585-0.133h-0.244v-0.259h4.616v0.259
		c-0.35,0.025-0.595,0.072-0.732,0.143c-0.137,0.073-0.244,0.193-0.319,0.361c-0.041,0.088-0.064,0.305-0.064,0.651v1.974
		c-0.607,0.272-1.238,0.476-1.894,0.613c-0.655,0.138-1.336,0.207-2.041,0.207c-0.902,0-1.649-0.122-2.246-0.367
		c-0.595-0.245-1.12-0.568-1.577-0.966c-0.455-0.399-0.811-0.848-1.067-1.348c-0.328-0.645-0.491-1.366-0.491-2.165
		c0-1.429,0.502-2.635,1.506-3.621c1.005-0.985,2.267-1.478,3.79-1.478c0.471,0,0.897,0.037,1.274,0.112
		c0.205,0.037,0.538,0.143,0.998,0.319c0.461,0.176,0.732,0.263,0.816,0.263c0.131,0,0.253-0.047,0.365-0.143
		c0.112-0.096,0.214-0.278,0.308-0.544L117.28,166.581L117.28,166.581z"/>
	<path fill="#273583" d="M129.743,173.593h-3.355l-0.399,0.924c-0.131,0.309-0.196,0.563-0.196,0.763
		c0,0.267,0.107,0.462,0.321,0.589c0.127,0.075,0.437,0.13,0.932,0.168v0.259h-3.159v-0.259c0.34-0.051,0.621-0.192,0.841-0.423
		c0.22-0.233,0.491-0.709,0.812-1.432l3.398-7.579h0.133l3.425,7.789c0.326,0.737,0.595,1.202,0.805,1.394
		c0.158,0.144,0.384,0.229,0.673,0.252v0.259h-4.595v-0.259h0.189c0.369,0,0.628-0.051,0.777-0.154
		c0.102-0.075,0.153-0.182,0.153-0.323c0-0.083-0.014-0.171-0.041-0.259c-0.01-0.041-0.078-0.217-0.21-0.526L129.743,173.593z
		 M129.505,173.075l-1.416-3.271l-1.456,3.271H129.505z"/>
	<path fill="#273583" d="M145.249,166.581v3.348h-0.259c-0.313-0.914-0.782-1.61-1.407-2.087c-0.626-0.477-1.31-0.714-2.053-0.714
		c-0.709,0-1.3,0.199-1.772,0.598c-0.472,0.399-0.805,0.957-1.001,1.671c-0.196,0.714-0.294,1.447-0.294,2.199
		c0,0.909,0.107,1.709,0.323,2.395c0.214,0.688,0.56,1.191,1.04,1.513c0.48,0.323,1.047,0.484,1.705,0.484
		c0.229,0,0.463-0.026,0.704-0.075c0.24-0.049,0.487-0.121,0.74-0.214v-1.974c0-0.375-0.026-0.615-0.077-0.726
		c-0.051-0.11-0.157-0.208-0.319-0.296c-0.161-0.088-0.356-0.133-0.585-0.133h-0.244v-0.259h4.616v0.259
		c-0.35,0.025-0.595,0.072-0.732,0.143c-0.137,0.073-0.244,0.193-0.319,0.361c-0.041,0.088-0.064,0.305-0.064,0.651v1.974
		c-0.607,0.272-1.238,0.476-1.894,0.613c-0.655,0.138-1.336,0.207-2.041,0.207c-0.902,0-1.649-0.122-2.246-0.367
		c-0.595-0.245-1.12-0.568-1.577-0.966c-0.455-0.399-0.811-0.848-1.067-1.348c-0.328-0.645-0.491-1.366-0.491-2.165
		c0-1.429,0.502-2.635,1.506-3.621c1.005-0.985,2.267-1.478,3.79-1.478c0.471,0,0.897,0.037,1.274,0.112
		c0.205,0.037,0.538,0.143,0.998,0.319c0.461,0.176,0.732,0.263,0.816,0.263c0.131,0,0.253-0.047,0.365-0.143
		c0.112-0.096,0.214-0.278,0.308-0.544L145.249,166.581L145.249,166.581z"/>
</g>
</svg>
